<svg xmlns="http://www.w3.org/2000/svg" width="1200" height="520" viewBox="0 0 1200 520" role="img" aria-labelledby="title desc">
  <title id="title">DSP modules flow</title>
  <desc id="desc">Block diagram of DSP modules implemented in cpp-dsp-showcase.</desc>
  <defs>
    <marker id="arrow" markerWidth="12" markerHeight="12" refX="10" refY="6" orient="auto" markerUnits="strokeWidth">
      <path d="M2,2 L10,6 L2,10 Z" fill="#334155"/>
    </marker>
    <filter id="shadow" x="-10%" y="-10%" width="120%" height="120%">
      <feDropShadow dx="0" dy="4" stdDeviation="5" flood-color="#0f172a" flood-opacity="0.12"/>
    </filter>
    <style>
      .bg { fill: #f8fafc; }
      .title { font: 700 30px Arial, sans-serif; fill: #0f172a; }
      .subtitle { font: 400 16px Arial, sans-serif; fill: #475569; }
      .box { fill: #ffffff; stroke: #cbd5e1; stroke-width: 2; rx: 18; filter: url(#shadow); }
      .boxCore { fill: #eef6ff; stroke: #60a5fa; stroke-width: 2; rx: 18; filter: url(#shadow); }
      .boxVal { fill: #f0fdf4; stroke: #86efac; stroke-width: 2; rx: 18; filter: url(#shadow); }
      .h { font: 700 18px Arial, sans-serif; fill: #0f172a; }
      .p { font: 400 14px Arial, sans-serif; fill: #475569; }
      .arrow { stroke: #334155; stroke-width: 2.5; fill: none; marker-end: url(#arrow); }
      .dash { stroke-dasharray: 8 7; }
    </style>
  </defs>

  <rect class="bg" width="1200" height="520"/>
  <text x="60" y="58" class="title">DSP modules</text>
  <text x="60" y="84" class="subtitle">Correctness-first C++17 signal-processing kernels with clear optimization paths</text>

  <rect x="60" y="145" width="210" height="105" class="box"/>
  <text x="90" y="183" class="h">Signal sources</text>
  <text x="90" y="211" class="p">tone generation</text>
  <text x="90" y="232" class="p">test vectors / helpers</text>

  <rect x="340" y="80" width="230" height="105" class="boxCore"/>
  <text x="370" y="118" class="h">FIR design</text>
  <text x="370" y="146" class="p">windowed-sinc low-pass</text>
  <text x="370" y="167" class="p">Blackman + DC norm</text>

  <rect x="340" y="235" width="230" height="105" class="boxCore"/>
  <text x="370" y="273" class="h">Convolution</text>
  <text x="370" y="301" class="p">time-domain filtering</text>
  <text x="370" y="322" class="p">baseline implementation</text>

  <rect x="640" y="80" width="230" height="105" class="boxCore"/>
  <text x="670" y="118" class="h">Goertzel</text>
  <text x="670" y="146" class="p">single-bin tone power</text>
  <text x="670" y="167" class="p">targeted detection</text>

  <rect x="640" y="235" width="230" height="105" class="boxCore"/>
  <text x="670" y="273" class="h">GCC-PHAT</text>
  <text x="670" y="301" class="p">delay estimation</text>
  <text x="670" y="322" class="p">DFT baseline path</text>

  <rect x="640" y="390" width="230" height="80" class="boxCore"/>
  <text x="670" y="424" class="h">Rational resampler</text>
  <text x="670" y="452" class="p">upsample-filter-decimate</text>

  <rect x="950" y="145" width="190" height="105" class="boxVal"/>
  <text x="980" y="183" class="h">Validation</text>
  <text x="980" y="211" class="p">GoogleTest / CTest</text>
  <text x="980" y="232" class="p">smoke + perf tests</text>

  <rect x="950" y="305" width="190" height="105" class="boxVal"/>
  <text x="980" y="343" class="h">Reports</text>
  <text x="980" y="371" class="p">benchmark Markdown</text>
  <text x="980" y="392" class="p">CI artifacts</text>

  <path class="arrow" d="M270 198 C300 198, 310 132, 340 132"/>
  <path class="arrow" d="M270 198 C300 198, 310 288, 340 288"/>
  <path class="arrow" d="M570 132 L640 132"/>
  <path class="arrow" d="M570 288 L640 288"/>
  <path class="arrow" d="M455 340 C455 430, 570 430, 640 430"/>
  <path class="arrow" d="M870 132 C910 132, 920 198, 950 198"/>
  <path class="arrow" d="M870 288 C910 288, 920 198, 950 198"/>
  <path class="arrow" d="M870 430 C925 430, 920 358, 950 358"/>
  <path class="arrow dash" d="M1045 250 L1045 305"/>
</svg>
