<svg xmlns="http://www.w3.org/2000/svg" width="900" height="360" viewBox="0 0 900 360"><style>.bg{fill:#f8fafc}.axis{stroke:#334155;stroke-width:2}.grid{stroke:#e2e8f0}.curve{fill:none;stroke:#2563eb;stroke-width:4}.cut{stroke:#ef4444;stroke-width:2;stroke-dasharray:8 6}.t{font:700 24px Arial;fill:#0f172a}.s{font:400 14px Arial;fill:#475569}.l{font:700 13px Arial;fill:#334155}</style><rect class="bg" width="900" height="360"/><text x="42" y="44" class="t">FIR low-pass frequency response</text><text x="42" y="68" class="s">Windowed-sinc FIR, Blackman window, DC-normalized taps</text><line x1="80" y1="300" x2="840" y2="300" class="axis"/><line x1="80" y1="95" x2="80" y2="300" class="axis"/><line x1="80" y1="240" x2="840" y2="240" class="grid"/><line x1="80" y1="180" x2="840" y2="180" class="grid"/><line x1="80" y1="120" x2="840" y2="120" class="grid"/><path class="curve" d="M80 110 C140 110 180 112 220 118 C250 125 280 148 305 215 C330 278 365 302 410 306 C500 310 620 304 840 306"/><line x1="300" y1="95" x2="300" y2="300" class="cut"/><text x="286" y="88" class="l">cutoff</text><text x="390" y="335" class="s">normalized frequency</text><text x="28" y="205" class="s" transform="rotate(-90 28 205)">magnitude, dB</text></svg>